<svg xmlns="http://www.w3.org/2000/svg" viewBox="0 0 256 256" role="img" aria-label="Discord">
  <circle cx="128" cy="128" r="120" fill="#fff"/>
  <path fill="#050507" d="M176.8 78.2a118.8 118.8 0 0 0-29.8-9.3l-3.7 7.6a110 110 0 0 0-30.6 0l-3.8-7.6a120.7 120.7 0 0 0-29.8 9.3C60.3 106.1 55.2 133.3 57.8 160c12.6 9.4 24.8 15.1 36.8 18.8 3-4.1 5.7-8.5 8-13.1a78.8 78.8 0 0 1-12.6-6.1l3.1-2.4c24.3 11.3 50.7 11.3 74.7 0l3.2 2.4a82 82 0 0 1-12.7 6.1c2.3 4.6 5 9 8 13.1 12-3.7 24.2-9.4 36.8-18.8 3.1-31-5.3-58-26.3-81.8ZM105.2 143.8c-7.3 0-13.3-6.8-13.3-15.1s5.9-15.1 13.3-15.1c7.5 0 13.5 6.8 13.3 15.1 0 8.3-5.9 15.1-13.3 15.1Zm45.6 0c-7.3 0-13.3-6.8-13.3-15.1s5.9-15.1 13.3-15.1c7.5 0 13.5 6.8 13.3 15.1 0 8.3-5.8 15.1-13.3 15.1Z"/>
</svg>
