<svg xmlns="http://www.w3.org/2000/svg" viewBox="0 0 256 256"><circle cx="128" cy="128" r="120" fill="#fff"/><path fill="#050507" d="M94 92c13-9 27-10 27-10l3 7c-15 4-22 10-22 10 23-11 54-11 78 0 0 0-8-7-23-10l3-7s14 1 27 10c0 0 14 25 16 74 0 0-16 27-56 28 0 0-7-8-12-15 24-7 33-21 33-21-8 5-16 9-23 11-10 3-20 4-30 1-8-1-16-4-24-8-1-1-2-1-3-2 0 0 9 14 32 21-5 7-12 15-12 15-40-1-56-28-56-28 2-49 16-74 16-74Zm39 51c9 0 16-8 16-17s-7-17-16-17-16 8-16 17 7 17 16 17Zm56 0c9 0 16-8 16-17s-7-17-16-17-16 8-16 17 7 17 16 17Z" transform="translate(-28 -10) scale(1.22)"/></svg>
